<?xml version="1.0" encoding="utf-8"?>
<svg version="1.1" id="Layer_1" xmlns="http://www.w3.org/2000/svg" xmlns:xlink="http://www.w3.org/1999/xlink" x="0px" y="0px"
	 viewBox="0 0 89.2 40" style="enable-background:new 0 0 89.2 40;" xml:space="preserve">
<style type="text/css">
	.st0{fill:#2A55E5;}
	.st1{fill:url(#SVGID_1_);}
	.st2{fill:url(#SVGID_00000128459723745969307180000003969414876235368625_);}
	.st3{fill:url(#SVGID_00000039848663122778897690000003522533064379294864_);}
	.st4{fill:url(#SVGID_00000067211248263450715350000003520339647799057800_);}
	.st5{fill:#9E9E9E;}
	.st6{fill:#FFC200;}
</style>
<path class="st0" d="M15,4.8l0.2-1.6c0-0.3,0-0.5-0.2-0.7c-0.2-0.2-0.4-0.3-0.7-0.3H4.7c-0.4,0-0.8,0.3-0.9,0.7L1.2,19.4
	c0,0.3,0,0.5,0.2,0.7c0.2,0.2,0.4,0.3,0.7,0.3h2.2c0.4,0,0.8-0.3,0.9-0.7l1-6.4h5.5c0.4,0,0.8-0.3,0.8-0.7l0.2-1.4
	c0-0.3,0-0.5-0.2-0.7c-0.2-0.2-0.4-0.3-0.7-0.3H6.7l0.7-4.6h6.7C14.5,5.5,14.9,5.2,15,4.8z M65.7,10.3L65.7,10.3
	C65,10.1,64.3,10,63.6,10c-1.2,0-2.2,0.5-2.8,1.5c-0.6,1-0.9,2.1-0.9,3.3c0,0.8,0.1,1.4,0.4,1.9c0.3,0.5,0.7,0.8,1.1,0.8
	c0.5,0,1.2-0.4,1.9-1c0.7-0.7,1.3-1.5,1.9-2.4L65.7,10.3z M69.8,8.4L68,19.7c-0.1,0.4-0.4,0.7-0.9,0.7h-1.3c-0.2,0-0.5-0.1-0.6-0.3
	C65,20,64.9,19.7,65,19.5l0.1-1.4l-0.2,0.2c0,0-0.5,0.6-1.1,1c-0.9,0.7-1.8,1-1.9,1.1c-0.5,0.2-1.1,0.3-1.7,0.3
	c-1.3,0-2.3-0.5-3-1.4c-0.7-1-1.1-2.2-1.1-3.8c0-0.8,0.1-1.6,0.2-2.4c0.2-0.8,0.4-1.5,0.8-2.3c0.4-0.8,0.9-1.4,1.5-2
	c0.6-0.6,1.4-1,2.3-1.4c0.9-0.3,2-0.5,3.2-0.5c1.4,0,3.1,0.2,5,0.6C69.5,7.5,69.8,7.9,69.8,8.4z M79.2,7c-0.9,0.2-1.8,0.8-2.3,1.2
	c-0.7,0.5-1.6,1.5-1.6,1.5l-0.2,0.2L75.2,8c0-0.2-0.1-0.5-0.2-0.6c-0.2-0.2-0.4-0.3-0.6-0.3H73c-0.4,0-0.8,0.3-0.9,0.7l-1.8,11.5
	c0,0.3,0,0.5,0.2,0.7c0.2,0.2,0.4,0.3,0.7,0.3h2.1c0.4,0,0.8-0.3,0.9-0.7l1-6.1c0.5-0.8,1.3-1.4,2.1-2c0.6-0.4,1.3-0.7,2-0.8
	c0.4-0.1,0.6-0.3,0.7-0.7L80.2,8c0.1-0.3,0-0.6-0.2-0.8C79.8,7,79.5,6.9,79.2,7z M38,12.7c0-0.8-0.1-1.4-0.4-1.9
	c-0.3-0.5-0.7-0.8-1.1-0.8c-0.5,0-1.2,0.3-1.9,1c-0.7,0.7-1.3,1.5-1.9,2.4l-0.6,3.7l0.1,0c0.6,0.2,1.3,0.3,2.1,0.3
	c1.3,0,2.2-0.5,2.8-1.5C37.7,15.1,38,13.9,38,12.7z M40.8,8.3c0.7,1,1.1,2.2,1.1,3.8c0,1-0.1,2-0.4,3c-0.3,0.9-0.7,1.9-1.3,2.7
	c-0.6,0.9-1.4,1.6-2.5,2.1c-1.1,0.5-2.4,0.8-3.8,0.8c-0.6,0-1.3-0.1-2.2-0.2l-0.1,0l-0.2,1.6c0,0,0,0,0,0.1l-0.5,2.7
	c-0.1,0.4-0.4,0.7-0.8,0.7h-2c-0.3,0-0.5-0.1-0.7-0.3c-0.2-0.2-0.2-0.4-0.2-0.7l2.7-16.7c0.1-0.4,0.4-0.7,0.9-0.7H32
	c0.2,0,0.5,0.1,0.6,0.3c0.2,0.2,0.2,0.4,0.2,0.6l-0.1,1.4L33,9.2c0,0,1.3-1.5,3.2-2.1c0.5-0.2,1-0.3,1.6-0.3
	C39.1,6.8,40.1,7.3,40.8,8.3z M88.3,7.1h-1.6l0.4-2.3c0-0.3,0-0.5-0.2-0.7c-0.2-0.2-0.4-0.3-0.7-0.3h-1.6c-0.4,0-0.7,0.3-0.8,0.6
	L83,7.1h-0.9c-0.4,0-0.8,0.3-0.8,0.7l-0.2,1.2c0,0.3,0,0.5,0.2,0.7c0.2,0.2,0.4,0.3,0.7,0.3h0.5l-1,6.1c-0.1,0.4-0.1,0.8-0.1,1.2
	c0,1.1,0.3,1.9,0.9,2.4c0.6,0.5,1.5,0.8,2.7,0.8c0.7,0,1.7-0.3,1.8-0.3c0.1,0,0.3-0.1,0.3-0.1c0,0,0.1,0,0.1,0
	c0.2-0.1,0.4-0.4,0.4-0.7l0.2-1.3c0-0.3-0.1-0.5-0.3-0.7c-0.1-0.1-0.1-0.1-0.2-0.1c0,0-0.1,0-0.1-0.1c0,0-0.1,0-0.4,0
	c-0.1,0-0.2,0-0.2,0c-0.1,0-0.2,0-0.3,0c-0.1,0-0.4-0.1-0.6-0.2c-0.1-0.1-0.3-0.3-0.3-1c0-0.1,0-0.2,0-0.3l0.9-5.7h1.8
	c0.4,0,0.8-0.3,0.8-0.7l0.2-1.2c0.1-0.3,0-0.5-0.2-0.7C88.8,7.2,88.6,7.1,88.3,7.1z M55.7,7.5c-0.2-0.2-0.4-0.3-0.7-0.3h-2.1
	c-0.4,0-0.7,0.3-0.8,0.6c-0.2,0.6-0.5,1.3-1,2.1c-0.7,1.1-1.3,1.8-1.8,2.1l-0.1,0c-0.2,0.1-0.4,0.2-1.4,0.4l-0.1,0l1.5-9.3
	c0-0.3,0-0.5-0.2-0.7c-0.2-0.2-0.4-0.3-0.7-0.3h-2.1c-0.4,0-0.8,0.3-0.9,0.7l-2.6,16.5c0,0.3,0,0.5,0.2,0.7c0.2,0.2,0.4,0.3,0.7,0.3
	h2.1c0.4,0,0.8-0.3,0.9-0.7l0.7-4.3h1.3l1.8,4.5c0.1,0.3,0.4,0.5,0.8,0.5h2.2c0.5,0,0.9-0.4,0.9-0.9c0-0.1,0-0.2-0.1-0.3L52,14l0,0
	c0.8-0.8,1.7-1.8,2.6-3.2c0.6-0.9,1-1.7,1.2-2.5C55.9,8,55.8,7.7,55.7,7.5z M25.9,6c0.9,0,1.5-0.2,1.9-0.7c0.4-0.4,0.6-1,0.6-1.7
	c0-0.5-0.2-0.9-0.5-1.2C27.7,2.1,27.2,2,26.6,2c-0.9,0-1.5,0.2-1.9,0.7c-0.4,0.4-0.6,1-0.6,1.7c0,0.5,0.2,0.9,0.5,1.2
	C24.9,5.9,25.3,6,25.9,6z M26.6,7.1h-2c-0.4,0-0.8,0.3-0.9,0.7l-1.8,11.5c0,0.3,0,0.5,0.2,0.7c0.2,0.2,0.4,0.3,0.7,0.3h2
	c0.4,0,0.8-0.3,0.9-0.7l1.8-11.5c0-0.3,0-0.5-0.2-0.7C27.1,7.2,26.9,7.1,26.6,7.1z M20.8,2.5C20.9,2.7,21,2.9,21,3.2L19,16
	c0,0.2,0,0.4,0,0.4c0,0.4,0.1,0.7,0.2,0.9c0.2,0.1,0.5,0.2,0.5,0.2c0.2,0,0.4,0.1,0.5,0.3c0.2,0.2,0.3,0.4,0.2,0.7l-0.1,1.1
	c0,0.2-0.1,0.4-0.3,0.6c-0.1,0.1-0.3,0.2-0.5,0.3c-0.2,0.1-0.8,0.3-1.3,0.3c-1.1,0-1.9-0.3-2.5-0.7c-0.6-0.5-0.8-1.2-0.8-2.1
	c0-0.3,0-0.5,0.1-0.8c0-0.1,2.2-13.9,2.2-14c0.1-0.4,0.4-0.7,0.9-0.7h2.1C20.4,2.2,20.6,2.3,20.8,2.5z"/>
<linearGradient id="SVGID_1_" gradientUnits="userSpaceOnUse" x1="76.6539" y1="15.026" x2="81.7999" y2="9.8984" gradientTransform="matrix(1 0 0 -1 0 42)">
	<stop  offset="4.110000e-02" style="stop-color:#FFF300"/>
	<stop  offset="0.2727" style="stop-color:#FFF300"/>
	<stop  offset="0.5022" style="stop-color:#FFE500"/>
	<stop  offset="0.8126" style="stop-color:#F2A930"/>
</linearGradient>
<path class="st1" d="M79.9,29.5c0,0,1.3,0.6,1.9,0.9c0.6,0.3,0.7,1.3,0,1.6c-0.7,0.3-0.9,0.4-0.9,0.4s0.1-0.3,0.1-0.5
	c0-0.5-1.5-0.9-2.4-1.1c0,0-0.7-2.3-1-2.9c-0.3-0.6-1-0.9-1-0.9l1.6,0c0,0,0.5,0,0.8,0.6C79.2,28.2,79.9,29.5,79.9,29.5z"/>
<linearGradient id="SVGID_00000058560113376755938730000002088833503967942575_" gradientUnits="userSpaceOnUse" x1="77.1966" y1="5.6115" x2="82.3517" y2="10.7479" gradientTransform="matrix(1 0 0 -1 0 42)">
	<stop  offset="0.1874" style="stop-color:#F2A930"/>
	<stop  offset="0.4978" style="stop-color:#FFE500"/>
	<stop  offset="0.7273" style="stop-color:#FFF300"/>
	<stop  offset="0.9589" style="stop-color:#FFF300"/>
</linearGradient>
<path style="fill:url(#SVGID_00000058560113376755938730000002088833503967942575_);" d="M79.8,34.5c0,0-0.6,1.3-0.9,1.9
	c-0.3,0.6-1.3,0.7-1.6,0c-0.3-0.7-0.4-0.8-0.4-0.8s0.2,0,0.5,0c0.5,0,0.9-1.5,1.1-2.4c0,0,2.2-0.7,2.9-1c0.6-0.3,0.9-1,0.9-1l0,1.8
	c0,0,0,0.3-0.5,0.5C81.2,33.8,79.8,34.5,79.8,34.5z"/>
<linearGradient id="SVGID_00000159442444792759255520000008568438789942719368_" gradientUnits="userSpaceOnUse" x1="72.8896" y1="10.1973" x2="78.0266" y2="5.0787" gradientTransform="matrix(1 0 0 -1 0 42)">
	<stop  offset="0.1874" style="stop-color:#F2A930"/>
	<stop  offset="0.4978" style="stop-color:#FFE500"/>
	<stop  offset="0.7273" style="stop-color:#FFF300"/>
	<stop  offset="0.9589" style="stop-color:#FFF300"/>
</linearGradient>
<path style="fill:url(#SVGID_00000159442444792759255520000008568438789942719368_);" d="M74.8,34.4c0,0-1.3-0.6-1.9-0.9
	c-0.6-0.3-0.7-1.3,0-1.6c0.7-0.3,1-0.4,1-0.4s-0.2,0.3-0.1,0.6c0,0.5,1.4,0.8,2.3,1c0,0,0.7,2.2,1,2.9c0.4,0.8,1,0.9,1,0.9l-1.8,0
	c0,0-0.3,0-0.5-0.6C75.5,35.7,74.8,34.4,74.8,34.4z"/>
<linearGradient id="SVGID_00000058566933192398292810000002230284574173676976_" gradientUnits="userSpaceOnUse" x1="72.37" y1="9.3691" x2="77.5127" y2="14.4929" gradientTransform="matrix(1 0 0 -1 0 42)">
	<stop  offset="4.110000e-02" style="stop-color:#FFF300"/>
	<stop  offset="0.2727" style="stop-color:#FFF300"/>
	<stop  offset="0.5022" style="stop-color:#FFE500"/>
	<stop  offset="0.8126" style="stop-color:#F2A930"/>
</linearGradient>
<path style="fill:url(#SVGID_00000058566933192398292810000002230284574173676976_);" d="M74.9,29.4c0,0,0.6-1.3,0.9-1.9
	c0.3-0.6,1.2-0.7,1.6,0c0.3,0.7,0.4,0.8,0.4,0.8s-0.3,0-0.5,0c-0.5,0-0.9,1.4-1.1,2.3c0,0-2.2,0.7-2.9,1c-0.9,0.4-0.9,1-0.9,1l0-1.8
	c0,0,0-0.3,0.5-0.5S74.9,29.4,74.9,29.4z"/>
<path class="st5" d="M6.1,35.6H0.2l1.3-8.2h5.9l-0.2,1.6h-4l-0.3,1.7h3.5l-0.2,1.5H2.6l-0.3,1.8h4L6.1,35.6z"/>
<path class="st5" d="M13,35.6h-2l-0.8-1.7l-1.5,1.7H6.7l2.6-3l-1.5-3h2l0.8,1.8l1.5-1.8H14l-2.6,3L13,35.6z"/>
<path class="st5" d="M18.3,29.4c0.6,0,1.1,0.2,1.4,0.7c0.3,0.4,0.5,1,0.5,1.7c0,0.5-0.1,0.9-0.2,1.4c-0.1,0.4-0.3,0.8-0.6,1.2
	c-0.3,0.4-0.7,0.7-1.2,1c-0.5,0.2-1.1,0.4-1.8,0.4c-0.3,0-0.6,0-1-0.1l-0.1,0.7L15.2,38h-1.8l1.3-8.4h1.4l0,1.3
	C16.6,29.9,17.4,29.4,18.3,29.4z M17.7,31c-0.2,0-0.5,0.2-0.8,0.5c-0.3,0.3-0.6,0.7-0.8,1.1l-0.3,1.6c0.3,0.1,0.6,0.1,0.9,0.1
	c0.6,0,1-0.2,1.2-0.7c0.3-0.4,0.4-0.9,0.4-1.5c0-0.3-0.1-0.6-0.2-0.8C18.1,31.1,17.9,31,17.7,31z"/>
<path class="st5" d="M23.9,34.2l-0.1,1.4c-0.4,0.2-0.9,0.3-1.3,0.3c-0.5,0-0.9-0.1-1.2-0.3c-0.3-0.2-0.4-0.6-0.4-1
	c0-0.1,0-0.2,0-0.4l1.1-6.8h1.8l-1,6.4c0,0.1,0,0.2,0,0.2c0,0.2,0,0.3,0.1,0.4c0.1,0.1,0.2,0.1,0.4,0.1
	C23.5,34.3,23.7,34.2,23.9,34.2z"/>
<path class="st5" d="M27.3,35.8c-0.8,0-1.5-0.2-1.9-0.7c-0.5-0.4-0.7-1-0.7-1.8c0-1.1,0.3-2.1,1-2.8c0.7-0.7,1.5-1.1,2.6-1.1
	c0.9,0,1.5,0.2,2,0.6c0.5,0.4,0.7,1,0.7,1.8c0,1.2-0.3,2.1-1,2.8C29.4,35.4,28.5,35.8,27.3,35.8z M27.5,34.3c0.5,0,0.9-0.2,1.2-0.6
	c0.3-0.4,0.5-0.9,0.5-1.6c0-0.8-0.3-1.2-1-1.2c-0.5,0-0.9,0.2-1.2,0.6c-0.3,0.4-0.5,0.9-0.5,1.6c0,0.4,0.1,0.7,0.3,0.9
	C26.9,34.2,27.2,34.3,27.5,34.3z"/>
<path class="st5" d="M31.5,35.6l1-6.1h1.4L33.9,31c0.6-1.1,1.4-1.6,2.3-1.6h0.1l-0.3,1.8c-0.4,0-0.8,0.1-1.2,0.4
	c-0.4,0.2-0.7,0.5-0.9,0.9l-0.5,3.1H31.5z"/>
<path class="st5" d="M42.3,31.3c-0.1,1.4-1.1,2.1-3.2,2.1c-0.3,0-0.6,0-0.9,0c0,0.4,0.2,0.6,0.4,0.8c0.2,0.2,0.6,0.2,1.1,0.2
	c0.6,0,1.2-0.1,1.9-0.3l-0.3,1.5c-0.6,0.2-1.3,0.3-2.1,0.3c-1,0-1.8-0.2-2.2-0.7c-0.4-0.4-0.6-1.1-0.6-1.9c0-1.1,0.3-2,0.9-2.7
	c0.6-0.7,1.5-1.1,2.6-1.1c0.8,0,1.4,0.2,1.8,0.5C42.1,30.3,42.3,30.7,42.3,31.3z M38.3,32.2c0.1,0,0.2,0,0.4,0
	c1.2,0,1.8-0.3,1.8-0.8c0-0.2-0.1-0.3-0.2-0.4c-0.1-0.1-0.3-0.2-0.5-0.2c-0.4,0-0.7,0.1-0.9,0.4C38.6,31.4,38.4,31.8,38.3,32.2z"/>
<path class="st6" d="M47.3,35.6h-1.9l1.3-8.2h3.3c1,0,1.7,0.2,2.2,0.6c0.4,0.4,0.6,0.9,0.6,1.6c0,0.3,0,0.7-0.1,1
	c-0.1,0.3-0.2,0.6-0.3,0.9c-0.2,0.3-0.4,0.6-0.6,0.8c-0.3,0.2-0.6,0.4-1.1,0.5c-0.4,0.1-0.9,0.2-1.5,0.2h-1.5L47.3,35.6z M48,31.5
	h1.3c1.1,0,1.6-0.5,1.6-1.6c0-0.3-0.1-0.6-0.3-0.7c-0.2-0.2-0.5-0.3-1-0.3h-1.3L48,31.5z"/>
<path class="st6" d="M56.1,34.2L56,35.5c-0.4,0.2-0.9,0.3-1.3,0.3c-0.5,0-0.9-0.1-1.2-0.3c-0.3-0.2-0.4-0.6-0.4-1c0-0.1,0-0.2,0-0.4
	l1.1-6.8H56l-1,6.4c0,0.1,0,0.2,0,0.2c0,0.2,0,0.3,0.1,0.4c0.1,0.1,0.2,0.1,0.4,0.1C55.7,34.3,55.9,34.2,56.1,34.2z"/>
<path class="st6" d="M63.3,29.6l-1,6.1h-1.4l0-1.3c-0.6,0.9-1.5,1.4-2.5,1.4c-0.5,0-0.9-0.2-1.2-0.5c-0.3-0.3-0.4-0.7-0.4-1.2
	c0-0.2,0-0.4,0-0.6l0.6-4h1.8l-0.6,3.6c0,0.1,0,0.2,0,0.4c0,0.5,0.2,0.7,0.5,0.7c0.3,0,0.5-0.1,0.9-0.4c0.3-0.3,0.6-0.6,0.9-1.1
	l0.5-3.1H63.3z"/>
<path class="st6" d="M63.6,35.5l0.3-1.5c0.1,0.1,0.3,0.1,0.7,0.2c0.4,0.1,0.8,0.1,1.2,0.1c0.8,0,1.2-0.2,1.2-0.6
	c0-0.1-0.1-0.3-0.3-0.3c-0.2-0.1-0.4-0.2-0.7-0.2c-0.3-0.1-0.6-0.1-0.8-0.2c-0.3-0.1-0.5-0.3-0.7-0.5c-0.2-0.2-0.3-0.5-0.3-0.9
	c0-0.7,0.3-1.2,0.8-1.6s1.3-0.6,2.3-0.6c0.3,0,0.7,0,1,0.1c0.3,0,0.6,0.1,0.7,0.1c0.2,0,0.3,0.1,0.3,0.1l-0.3,1.5
	c-0.1-0.1-0.4-0.2-0.7-0.2c-0.3-0.1-0.7-0.1-1-0.1c-0.8,0-1.2,0.2-1.2,0.6c0,0.1,0.1,0.2,0.3,0.3c0.2,0.1,0.4,0.1,0.7,0.2
	c0.3,0.1,0.6,0.1,0.8,0.2c0.3,0.1,0.5,0.3,0.7,0.5c0.2,0.2,0.3,0.5,0.3,0.9c0,0.7-0.3,1.3-0.8,1.7c-0.5,0.4-1.3,0.5-2.2,0.5
	c-0.4,0-0.7,0-1.1-0.1c-0.4,0-0.6-0.1-0.8-0.1C63.7,35.5,63.6,35.5,63.6,35.5z"/>
</svg>